<svg xmlns="http://www.w3.org/2000/svg" width="318" height="339" viewBox="0 0 318 339" version="1.1">
	<path d="M 21.882 2.381 C 13.141 5.504, 7.424 10.787, 3.355 19.500 L 1.020 24.500 1.010 159.072 C 0.999 312.631, 0.210 299.358, 9.926 309.074 C 19.728 318.877, 15.958 318.408, 88 318.782 C 122.375 318.961, 152.011 318.828, 153.859 318.488 C 163.013 316.800, 165.139 304.709, 157.020 300.510 C 154.505 299.210, 145.300 299, 90.772 299 C 21.261 299, 24.760 299.304, 21.494 292.989 C 20.191 290.469, 20 273.411, 20 159.500 C 20 16.047, 19.622 24.798, 25.967 21.517 C 30.297 19.278, 245.577 19.213, 249.901 21.449 C 256.310 24.763, 256 20.884, 256 97.816 C 256 146.384, 256.338 168.671, 257.108 170.881 C 259.800 178.602, 270.907 178.930, 274.484 171.393 C 275.887 168.437, 276.031 160.072, 275.773 96.782 C 275.503 30.711, 275.349 25.157, 273.666 20.805 C 270.999 13.912, 264.620 7.209, 257.540 3.859 L 251.500 1.002 138.500 1.045 C 48.725 1.079, 24.756 1.353, 21.882 2.381 M 65.694 43.026 C 64.277 44.140, 62.875 45.828, 62.578 46.776 C 61.014 51.767, 49.091 129.513, 49.586 131.487 C 50.308 134.362, 53.710 137.532, 56.908 138.310 C 60.037 139.071, 65.530 136.747, 66.972 134.051 C 68.107 131.931, 81 54.089, 81 49.357 C 81 47.915, 79.756 45.602, 78.077 43.923 C 74.525 40.371, 69.529 40.009, 65.694 43.026 M 105.168 43.146 C 97.009 47.184, 96.454 48.824, 90.247 87.247 C 86.445 110.778, 84.917 122.743, 85.390 125.263 C 86.338 130.320, 91.481 135.514, 97.014 137.004 C 103.730 138.812, 129.548 137.924, 133.631 135.744 C 137.619 133.614, 141.532 128.974, 142.880 124.775 C 145.058 117.989, 154.210 56.935, 153.565 53.495 C 153.210 51.605, 151.760 48.679, 150.341 46.994 C 145.716 41.497, 143.680 41, 125.800 41.001 C 111.149 41.001, 109.062 41.219, 105.168 43.146 M 176.804 43.041 C 172.993 45.053, 168.675 49.985, 167.647 53.500 C 166.339 57.971, 157 118.405, 157 122.399 C 157 127.605, 160.011 132.513, 165.003 135.446 C 168.149 137.294, 170.157 137.500, 185 137.500 C 203.910 137.500, 207.268 136.503, 212.245 129.411 C 214.734 125.864, 215.503 122.297, 220.512 91.100 C 224.038 69.135, 225.802 55.462, 225.392 53.278 C 225.039 51.397, 223.590 48.478, 222.172 46.793 C 217.876 41.687, 214.820 40.995, 196.782 41.044 C 182.616 41.083, 180.020 41.342, 176.804 43.041 M 109.702 85.250 C 107.642 99.138, 105.682 112.188, 105.347 114.250 L 104.738 118 114.824 118 L 124.909 118 125.470 114.750 C 127.064 105.517, 134 61.770, 134 60.951 C 134 60.411, 129.554 60, 123.724 60 L 113.448 60 109.702 85.250 M 185 61.048 C 185 61.624, 183.200 73.977, 181 88.500 C 178.800 103.023, 177 115.601, 177 116.452 C 177 117.746, 178.641 118, 187 118 C 192.500 118, 197 117.582, 197 117.071 C 197 115.964, 204.799 66.712, 205.602 62.750 L 206.159 60 195.579 60 C 188.873 60, 185 60.383, 185 61.048 M 44.302 169.012 C 38.665 171.282, 37.670 181.022, 42.672 184.957 C 45.229 186.968, 46.311 187, 112.180 187 L 179.091 187 181.505 184.586 C 184.660 181.431, 185.527 177.687, 183.972 173.933 C 181.446 167.833, 183.422 167.994, 111.800 168.063 C 75.885 168.098, 45.511 168.525, 44.302 169.012 M 228.500 182.100 C 202.822 185.766, 180.927 201.192, 169.078 223.968 C 162.598 236.423, 160.529 245.267, 160.533 260.500 C 160.537 274.550, 161.826 280.916, 167.042 292.637 C 174.874 310.240, 191.413 326.149, 209.342 333.326 C 242.789 346.716, 281.894 335.430, 302.601 306.411 C 312.704 292.252, 317.410 277.477, 317.383 260 C 317.349 238.007, 309.676 219.770, 293.869 204.109 C 281.723 192.075, 265.353 184.198, 248.026 182.050 C 238.560 180.877, 237.044 180.881, 228.500 182.100 M 224 202.608 C 203.224 208.186, 187.752 223.409, 181.380 244.543 C 178.716 253.380, 178.978 269.446, 181.926 278 C 185.390 288.049, 189.704 294.859, 197.523 302.620 C 225.736 330.625, 272.908 323.248, 291.468 287.929 C 296.176 278.969, 298 271.311, 298 260.500 C 298 242.973, 292.969 230.866, 280.543 218.489 C 271.874 209.854, 264.203 205.330, 253.505 202.543 C 246.089 200.612, 231.315 200.644, 224 202.608 M 45.388 208.966 C 42.232 210.262, 39 214.893, 39 218.119 C 39 219.854, 40.141 222.245, 41.918 224.234 L 44.836 227.500 97 227.500 L 149.164 227.500 152.082 224.234 C 155.906 219.954, 155.907 216.046, 152.083 211.766 L 149.165 208.500 98.333 208.299 C 70.375 208.189, 46.550 208.489, 45.388 208.966 M 230.308 222.972 C 229.103 223.478, 227.303 225.134, 226.308 226.652 C 224.726 229.067, 224.500 231.760, 224.500 248.187 L 224.500 266.962 227.500 269.844 C 229.150 271.430, 236.350 276.245, 243.500 280.545 C 258.485 289.556, 262.093 290.361, 266.727 285.727 C 268.787 283.668, 269.455 282.022, 269.455 279.005 C 269.455 273.904, 268.051 272.518, 254.916 264.641 L 244.500 258.395 244 243.218 C 243.521 228.681, 243.394 227.934, 241 225.544 C 238.168 222.717, 233.556 221.608, 230.308 222.972 M 42.712 251.012 C 39.527 253.517, 38.411 258.165, 40.047 262.113 C 42.482 267.991, 42.562 268, 92 268 C 141.438 268, 141.518 267.991, 143.953 262.113 C 145.589 258.165, 144.473 253.517, 141.288 251.012 C 138.808 249.061, 137.310 249, 92 249 C 46.690 249, 45.192 249.061, 42.712 251.012" stroke="none" fill="black" fill-rule="evenodd"/>
</svg>