<svg xmlns="http://www.w3.org/2000/svg" width="387" height="301" viewBox="0 0 387 301" version="1.1">
	<path d="M 178.561 1.585 C 149.317 8.128, 128.275 28.699, 120.885 57.969 C 119.071 65.155, 118.830 68.260, 119.296 78.469 C 119.896 91.609, 121.555 98.259, 126.926 109.051 C 132.318 119.885, 142.557 131.301, 152.978 138.098 L 155.429 139.697 149.964 141.489 C 133.842 146.778, 114.671 159.361, 101.086 173.572 C 83.385 192.087, 72.989 211.989, 67.401 238.053 C 63.624 255.673, 65.639 289.708, 70.891 297 C 74.852 302.499, 83.952 301.673, 86.888 295.548 C 88.119 292.979, 88.066 291.426, 86.462 283.057 C 82.623 263.038, 84.836 239.953, 92.362 221.492 C 114.379 167.491, 175.068 140.001, 229.931 159.180 C 264.320 171.201, 291.313 200.893, 300.101 236.365 C 303.119 248.551, 303.709 267.150, 301.486 280.090 C 299.203 293.381, 299.332 294.916, 303.003 298.250 C 306.409 301.343, 309.718 301.714, 314.026 299.487 C 316.265 298.329, 317.299 296.744, 318.429 292.737 C 321.170 283.023, 322.160 274.664, 322.133 261.470 C 322.064 227.466, 308.825 195.781, 284.527 171.467 C 271.209 158.139, 255.236 148.109, 234.672 140.158 C 233.115 139.556, 233.485 138.990, 237.172 136.339 C 262.208 118.334, 274.087 86.021, 266.525 56.500 C 265.680 53.200, 262.903 46.250, 260.354 41.055 C 256.524 33.251, 254.225 30.108, 247.110 22.957 C 237.205 13.003, 229.403 8.108, 216.549 3.782 C 205.295 -0.004, 189.696 -0.907, 178.561 1.585 M 184.763 20.033 C 158.038 24.533, 138.030 48.066, 138.030 75 C 138.030 107.447, 166.268 133.384, 198.618 130.650 C 217.350 129.066, 234.870 117.207, 243.256 100.435 C 247.812 91.322, 249.396 84.361, 249.271 74 C 248.866 40.414, 217.845 14.462, 184.763 20.033 M 93 23.507 C 72.416 28.525, 56.340 43.127, 48.421 64 C 45.805 70.896, 45.576 72.587, 45.576 85 C 45.576 97.383, 45.810 99.121, 48.404 106 C 52.145 115.923, 58.832 125.854, 66.048 132.206 L 71.914 137.370 64.571 140.563 C 53.709 145.286, 44.009 151.961, 34.037 161.573 C 13.283 181.580, 2.525 205.259, 1.294 233.641 C 0.635 248.845, 2.764 264.159, 6.132 268.440 C 10.128 273.520, 19.037 272.497, 21.846 266.635 C 23.018 264.190, 22.965 262.289, 21.470 253.173 C 15.696 217.974, 30.757 183.995, 60.725 164.609 C 73.334 156.453, 90.190 151.002, 102.815 150.998 C 113.103 150.996, 118.543 146.397, 117.601 138.500 C 116.850 132.208, 113.044 129.461, 104.027 128.705 C 88.606 127.413, 75.185 117.876, 68.199 103.247 C 64.660 95.836, 64.500 95.045, 64.500 85 C 64.500 74.955, 64.660 74.164, 68.199 66.753 C 75.174 52.147, 88.609 42.587, 103.971 41.299 C 112.187 40.610, 116.392 38.043, 117.490 33.046 C 118.230 29.678, 115.979 24.594, 113.055 23.030 C 110.426 21.622, 99.683 21.878, 93 23.507 M 273.058 24.788 C 269.224 28.622, 268.915 33.627, 272.271 37.529 C 274.173 39.740, 275.758 40.308, 282.021 41.024 C 294.952 42.501, 303.469 46.518, 311.206 54.789 C 327.413 72.116, 327.413 97.884, 311.206 115.211 C 303.469 123.482, 294.952 127.499, 282.021 128.976 C 273.043 130.002, 270 132.541, 270 139.009 C 270 147.808, 273.007 150.073, 286.038 151.091 C 298.652 152.076, 306.578 154.193, 317.653 159.535 C 341.089 170.840, 358.986 192.959, 364.959 218 C 367.324 227.917, 367.684 246.847, 365.691 256.500 C 364.086 264.275, 364.485 266.389, 368.142 269.466 C 371.577 272.357, 374.817 272.663, 379.013 270.493 C 382.658 268.609, 384.613 262.608, 386.233 248.332 C 390.265 212.803, 373.562 175.439, 343.500 152.742 C 337.039 147.863, 322.347 139.616, 316.860 137.787 C 316.255 137.585, 318.993 134.298, 322.946 130.482 C 331.418 122.302, 335.832 115.425, 339.624 104.490 C 342.029 97.557, 342.395 94.978, 342.395 85 C 342.395 75.022, 342.029 72.443, 339.624 65.510 C 336.016 55.106, 331.525 47.843, 324.144 40.473 C 313.027 29.373, 299.592 23.151, 284.808 22.256 C 276.155 21.732, 276.103 21.743, 273.058 24.788" stroke="none" fill="black" fill-rule="evenodd"/>
</svg>