<svg xmlns="http://www.w3.org/2000/svg" width="390" height="344" viewBox="0 0 390 344" version="1.1">
	<path d="M 161.580 1.107 C 143.265 3.778, 130.036 17.044, 125.582 37.206 C 125.095 39.410, 124.289 40.019, 121.242 40.485 C 110.663 42.102, 105.756 43.525, 98 47.224 C 91.139 50.496, 87.951 52.841, 81.463 59.389 C 68.797 72.172, 63 85.888, 63 103.070 C 63 120.097, 68.638 134.369, 80.155 146.493 C 110.816 178.772, 163.107 170.599, 182.473 130.500 C 186.090 123.010, 189 110.974, 189 103.500 C 189 90.344, 182.791 73.659, 173.935 63.017 C 168.185 56.108, 156.804 47.723, 149.801 45.236 C 145.379 43.665, 145 43.270, 145 40.225 C 145 33.579, 151.117 25.266, 158.500 21.879 C 162.290 20.140, 167.497 20.043, 257.554 20.022 L 352.607 20 357.824 22.600 C 363.842 25.598, 368.402 31.443, 369.945 38.135 C 370.580 40.891, 370.960 76.483, 370.976 134.661 L 371 226.822 374.077 229.411 C 378.145 232.835, 383.202 232.889, 386.545 229.545 C 387.895 228.195, 389.104 226.508, 389.231 225.795 C 389.358 225.083, 389.700 240.250, 389.992 259.500 C 390.283 278.750, 390.384 237.575, 390.216 168 C 390.016 85.548, 389.544 39.411, 388.860 35.500 C 385.729 17.603, 371.585 4.015, 353 1.052 C 345.034 -0.219, 170.325 -0.168, 161.580 1.107 M 112.487 61.799 C 97.910 66.839, 87.294 78.088, 83.552 92.460 C 78.301 112.626, 87.826 133.368, 106.599 142.646 C 112.823 145.722, 115.165 146.318, 122.744 146.750 C 135.538 147.479, 143.727 144.884, 154.193 136.781 C 159.019 133.045, 165.581 123.138, 167.527 116.649 C 169.509 110.042, 169.509 96.958, 167.527 90.351 C 163.748 77.752, 151.966 65.923, 139.299 62.011 C 131.105 59.480, 119.459 59.388, 112.487 61.799 M 221.284 62.701 C 218.310 63.277, 214 68.558, 214 71.626 C 214 75.397, 216.587 79.586, 219.715 80.882 C 221.772 81.734, 238.775 81.973, 283.183 81.773 L 343.840 81.500 346.368 79.124 C 351.574 74.233, 350.456 66.978, 343.999 63.752 C 340.778 62.142, 335.856 62.014, 282 62.138 C 249.825 62.212, 222.503 62.465, 221.284 62.701 M 249.775 103.543 C 245.192 106.057, 243.722 111.101, 246.071 116.257 C 248.461 121.501, 248.245 121.477, 295 121.811 C 340.318 122.135, 344.004 121.863, 347.564 117.929 C 350.496 114.689, 350.086 108.631, 346.705 105.250 L 343.956 102.500 298.228 102.274 C 259.236 102.081, 252.099 102.268, 249.775 103.543 M 276.606 166.303 C 274.912 167.997, 274.131 170.246, 273.651 174.803 C 273.293 178.211, 272.712 183.743, 272.360 187.096 C 271.721 193.177, 271.710 193.195, 267.235 195.114 C 264.575 196.254, 262.291 196.687, 261.624 196.179 C 261.006 195.707, 256.900 192.384, 252.500 188.795 C 243.217 181.224, 241.155 180.349, 237.300 182.350 C 233.646 184.247, 221.494 196.869, 220.595 199.701 C 219.664 202.634, 221.485 205.860, 229.429 215.352 C 233.043 219.671, 236 223.346, 236 223.519 C 236 223.692, 235.147 225.825, 234.104 228.258 L 232.207 232.682 219.933 233.966 C 203.258 235.710, 203 235.969, 203 250.907 C 203 257.051, 203.506 263.017, 204.147 264.424 C 205.561 267.528, 209.112 268.700, 219.500 269.491 C 231.195 270.382, 231.466 270.489, 233.536 275.081 C 235.736 279.959, 235.764 279.897, 226.250 291.498 C 217.714 301.907, 217.785 302.661, 228.326 313.466 C 238.960 324.367, 239.880 324.462, 250.502 315.750 C 262.096 306.241, 262.044 306.265, 266.898 308.454 C 269.154 309.471, 271.034 310.348, 271.075 310.402 C 271.116 310.456, 271.754 316.075, 272.492 322.889 C 274.300 339.585, 274.212 339.500, 289.778 339.500 C 297.309 339.500, 302.279 339.054, 303.678 338.253 C 306.073 336.882, 307.230 332.303, 308.667 318.501 C 309.484 310.652, 309.566 310.471, 313 308.799 C 314.925 307.863, 317.175 307.084, 318 307.070 C 318.825 307.056, 323.537 310.409, 328.471 314.522 C 340.630 324.657, 341.063 324.632, 352.319 313.129 C 357.094 308.250, 360.998 303.412, 360.995 302.379 C 360.988 300.003, 359.049 297.042, 351.320 287.602 L 345.139 280.055 346.744 275.969 C 347.627 273.722, 349.058 271.514, 349.925 271.063 C 350.791 270.612, 355.550 269.936, 360.500 269.561 C 372.028 268.688, 375.868 267.477, 377.062 264.337 C 377.578 262.980, 378 256.724, 378 250.435 C 378 235.446, 378.202 235.654, 362.016 233.961 L 349.793 232.682 347.888 228.238 C 345.703 223.141, 344.899 224.848, 355.750 211.544 C 359.633 206.783, 362 202.953, 362 201.430 C 362 198.508, 348.510 183.868, 344.156 182.065 C 340.313 180.473, 337.973 181.577, 328.610 189.404 C 320.250 196.393, 318.044 197.109, 312.965 194.482 C 309.582 192.733, 309.393 192.084, 308.163 178.060 C 306.939 164.096, 306.821 164, 290.844 164 C 279.719 164, 278.753 164.156, 276.606 166.303 M 45.763 168.009 C 29.792 170.779, 13.602 182.059, 6.987 195.025 C 0.950 206.859, 1 206.355, 1 255.500 C 1 297.093, 1.149 301.121, 2.877 306.142 C 5.825 314.710, 8.496 319.287, 14.203 325.544 C 20.919 332.907, 29.470 338.456, 38.458 341.285 C 45.008 343.345, 47.403 343.500, 72.725 343.500 L 99.950 343.500 102.702 340.750 C 106.542 336.914, 106.543 331.090, 102.707 327.250 L 99.959 324.500 72.229 324 L 44.500 323.500 38.858 320.730 C 32.600 317.656, 26.355 311.473, 22.821 304.849 L 20.500 300.500 20.500 255.500 L 20.500 210.500 22.821 206.151 C 26.355 199.527, 32.600 193.344, 38.858 190.270 L 44.500 187.500 72.229 187 L 99.959 186.500 102.707 183.750 C 106.541 179.912, 106.541 174.087, 102.706 170.250 L 99.958 167.500 75.229 167.344 C 61.628 167.258, 48.369 167.557, 45.763 168.009 M 151.476 168.346 C 144.100 171.682, 144.523 183.244, 152.119 185.892 C 154.111 186.586, 164.301 186.995, 179.399 186.986 C 201.437 186.972, 204.071 187.157, 210.168 189.141 C 215.985 191.034, 217.235 191.145, 219.965 190.015 C 223.377 188.601, 226 184.521, 226 180.626 C 226 176.433, 221.705 172.523, 214.291 169.968 C 207.958 167.786, 205.712 167.606, 181 167.303 C 160.170 167.047, 153.853 167.270, 151.476 168.346 M 279.487 213.733 C 267.476 218.044, 259.877 224.765, 254.838 235.533 C 243.923 258.857, 258.975 286.795, 284.638 290.845 C 297.231 292.833, 310.792 288.206, 319.425 278.977 C 337.999 259.120, 332.167 228.069, 307.592 215.970 C 299.236 211.857, 287.349 210.911, 279.487 213.733 M 282.670 228.623 C 279.545 229.583, 276.298 231.650, 273.470 234.477 C 258.287 249.660, 268.838 276, 290.102 276 C 298.049 276, 302.969 274.086, 308.028 269.028 C 313.134 263.921, 315.011 259.022, 314.978 250.884 C 314.949 243.804, 312.370 238.376, 306.635 233.328 C 299.676 227.202, 292.122 225.719, 282.670 228.623 M 211.500 321.294 C 207.726 323.375, 205.944 323.530, 180 324.030 C 164.875 324.322, 151.696 324.939, 150.713 325.402 C 148.565 326.412, 146 331.092, 146 334 C 146 337.653, 148.811 341.739, 152.119 342.892 C 157.289 344.694, 198.449 344.337, 207.792 342.409 C 222.983 339.274, 230.378 333.626, 228.594 326.519 C 226.782 319.300, 219.276 317.006, 211.500 321.294" stroke="none" fill="black" fill-rule="evenodd"/>
</svg>