<svg xmlns="http://www.w3.org/2000/svg" width="356" height="391" viewBox="0 0 356 391" version="1.1">
	<path d="M 159.305 11.667 C 151.162 18.083, 116.825 45.137, 83 71.785 C 49.175 98.434, 19.813 121.967, 17.750 124.080 C 15.047 126.850, 14 128.789, 14 131.027 C 14 137.555, 18.285 141.944, 24.690 141.978 C 28.906 142, 34.980 137.554, 83.750 98.750 C 84.747 97.957, 85 108.616, 85 151.378 L 85 205 42.500 205 L 0 205 0 217 L 0 229 3.500 229 L 7 229 7 305.550 C 7 388.200, 6.879 386.259, 12.196 389.105 C 13.826 389.977, 55.497 390.270, 178.280 390.272 L 342.188 390.274 345.344 387.118 L 348.500 383.962 348.768 306.481 L 349.036 229 352.018 229 L 355 229 355 217 L 355 205 312.500 205 L 270 205 270 151.500 C 270 122.075, 270.232 98, 270.516 98 C 270.800 98, 282.931 107.424, 297.474 118.942 C 312.017 130.460, 324.805 140.360, 325.892 140.942 C 331.602 143.998, 340.107 140.213, 341.336 134.069 C 342.715 127.176, 343.928 128.254, 262.152 63.663 C 219.443 29.930, 183.517 1.806, 182.316 1.165 C 177.146 -1.592, 174.733 -0.491, 159.305 11.667 M 141.750 52.743 L 107 80.339 107 224.669 L 107 369 118.500 369 L 130 369 130 325.723 C 130 287.331, 130.184 282.182, 131.631 280.117 C 135.052 275.232, 137.157 275, 178.067 275 C 211.636 275, 216.619 275.200, 219.722 276.672 C 225.934 279.620, 226 280.146, 226 326.968 L 226 369 237.500 369 L 249 369 248.978 224.750 L 248.956 80.500 214.032 53 C 194.824 37.875, 178.522 25.420, 177.804 25.323 C 177.087 25.226, 160.863 37.565, 141.750 52.743 M 170 114.142 C 161.359 115.570, 152.648 120.192, 145.920 126.920 C 123.663 149.177, 130.038 186.144, 158.463 199.643 C 164.878 202.689, 167.443 203.333, 174.840 203.755 C 189.358 204.583, 200.672 200.218, 210.374 190.047 C 219.875 180.086, 223.556 169.884, 222.750 155.744 C 222.312 148.064, 221.736 145.850, 218.448 139.189 C 211.701 125.523, 199.599 116.438, 184.981 114.067 C 177.703 112.886, 177.604 112.886, 170 114.142 M 167.168 137.603 C 149.696 146.310, 149.650 171.149, 167.090 180.046 C 180.276 186.773, 196.403 179.740, 200.557 165.450 C 206.351 145.520, 185.754 128.342, 167.168 137.603 M 28 304.500 L 28 369 56.500 369 L 85 369 85 304.500 L 85 240 56.500 240 L 28 240 28 304.500 M 270 304.500 L 270 369 298.500 369 L 327 369 327 304.500 L 327 240 298.500 240 L 270 240 270 304.500 M 49.766 251.918 L 46.500 254.836 46.500 276.500 L 46.500 298.164 49.766 301.082 C 55.947 306.605, 64.766 304.103, 66.960 296.205 C 68.563 290.433, 68.294 259.640, 66.606 255.599 C 63.631 248.479, 55.583 246.720, 49.766 251.918 M 291.400 252.400 L 288 255.800 288 276.500 L 288 297.200 291.400 300.600 C 295.964 305.164, 301.344 305.349, 305.894 301.099 L 309 298.198 309 276.500 L 309 254.802 305.894 251.901 C 301.344 247.651, 295.964 247.836, 291.400 252.400 M 151 333 L 151 369 177.500 369 L 204 369 204 333 L 204 297 177.500 297 L 151 297 151 333 M 49.616 307.657 C 48.155 309.118, 46.716 311.283, 46.419 312.469 C 46.121 313.654, 46.018 323.475, 46.189 334.292 C 46.500 353.951, 46.501 353.960, 49.097 356.554 C 54.868 362.320, 64.809 359.950, 66.933 352.302 C 68.557 346.455, 68.309 315.675, 66.606 311.599 C 64.744 307.143, 61.434 305, 56.414 305 C 53.265 305, 51.636 305.636, 49.616 307.657 M 291.686 307.415 C 290.253 308.743, 288.810 310.908, 288.479 312.227 C 288.148 313.545, 288.018 323.449, 288.189 334.234 C 288.493 353.376, 288.558 353.905, 290.910 356.407 C 295.436 361.219, 303.990 360.716, 307.451 355.434 C 308.726 353.488, 309 349.336, 309 331.958 L 309 310.846 306.077 307.923 C 302.182 304.028, 295.592 303.795, 291.686 307.415" stroke="none" fill="black" fill-rule="evenodd"/>
</svg>